<?xml version="1.0" encoding="UTF-8"?>
<svg xmlns="http://www.w3.org/2000/svg" width="1800" height="1275" viewBox="0 0 1800 1275" role="img" aria-labelledby="title desc">
<title id="title">WBS réel du projet TAMEO-IA</title>
<desc id="desc">Work Breakdown Structure des tâches réellement réalisées ou engagées, dérivé du dossier de réalisation et du rapport final.</desc>
<defs>
<filter id="shadow" x="-5%" y="-5%" width="110%" height="115%">
<feDropShadow dx="0" dy="6" stdDeviation="7" flood-color="#0B2336" flood-opacity="0.13"/>
</filter>
<linearGradient id="pageBg" x1="0" x2="1" y1="0" y2="1">
<stop offset="0%" stop-color="#F7FAFC"/>
<stop offset="100%" stop-color="#EEF4F7"/>
</linearGradient>
</defs>
<rect width="1800" height="1275" fill="url(#pageBg)"/>
<text x="70.0" y="72.0" font-size="28" font-weight="700" fill="#173B5C" text-anchor="start">TAMEO - Pôle IA</text>
<text x="900.0" y="75.0" font-size="44" font-weight="800" fill="#173B5C" text-anchor="middle">WBS réel des tâches réalisées</text>
<text x="900.0" y="112.0" font-size="19" font-weight="400" fill="#526778" text-anchor="middle">Périmètre constaté au 21 avril 2026</text>
<image href="../assets/tameo-logo.png" x="1500" y="44" width="235" height="67" preserveAspectRatio="xMidYMid meet"/>
<g filter="url(#shadow)"><rect x="520.0" y="125.0" width="760.0" height="88.0" rx="14.0" fill="#173B5C" stroke="#173B5C" stroke-width="0.0"/></g>
<text x="590.0" y="173.0" font-size="27" font-weight="800" fill="#FFFFFF" text-anchor="start">Projet Bateau IA - TAMEO</text>
<text x="590.0" y="199.0" font-size="16" font-weight="400" fill="#DDEBF1" text-anchor="start">Perception, intégration, contrôle, tests et transition vers le bateau réel</text>
<line x1="900.0" y1="213.0" x2="900.0" y2="242.0" stroke="#8AA2B3" stroke-width="2.3"/>
<line x1="330.0" y1="242.0" x2="1470.0" y2="242.0" stroke="#8AA2B3" stroke-width="2.3"/>
<line x1="330.0" y1="242.0" x2="330.0" y2="275.0" stroke="#8AA2B3" stroke-width="2.3"/>
<line x1="900.0" y1="242.0" x2="900.0" y2="275.0" stroke="#8AA2B3" stroke-width="2.3"/>
<line x1="1470.0" y1="242.0" x2="1470.0" y2="275.0" stroke="#8AA2B3" stroke-width="2.3"/>
<line x1="900.0" y1="685.0" x2="900.0" y2="702.0" stroke="#B4C3CE" stroke-width="2"/>
<line x1="330.0" y1="702.0" x2="1470.0" y2="702.0" stroke="#B4C3CE" stroke-width="2"/>
<line x1="330.0" y1="702.0" x2="330.0" y2="735.0" stroke="#B4C3CE" stroke-width="2"/>
<line x1="900.0" y1="702.0" x2="900.0" y2="735.0" stroke="#B4C3CE" stroke-width="2"/>
<line x1="1470.0" y1="702.0" x2="1470.0" y2="735.0" stroke="#B4C3CE" stroke-width="2"/>
<g filter="url(#shadow)"><rect x="70.0" y="275.0" width="520.0" height="410.0" rx="12.0" fill="#FFFFFF" stroke="#D5DEE7" stroke-width="1.2"/></g>
<rect x="70.0" y="275.0" width="520.0" height="9.0" rx="4.0" fill="#2E6F95" stroke="#2E6F95" stroke-width="0.0"/>
<rect x="92.0" y="301.0" width="54.0" height="36.0" rx="8.0" fill="#2E6F95" stroke="#2E6F95" stroke-width="1.5"/>
<text x="119.0" y="325.0" font-size="21" font-weight="700" fill="#FFFFFF" text-anchor="middle">1</text>
<text x="162.0" y="314.0" font-size="22" font-weight="700" fill="#173B5C" text-anchor="start">Plateforme BlueBoat/banc d&#x27;essai</text>
<line x1="92.0" y1="357.0" x2="568.0" y2="357.0" stroke="#E5EBF0" stroke-width="1.2"/>
<rect x="94.0" y="365.0" width="66.0" height="34.0" rx="8.0" fill="#EEF4F7" stroke="#DCE7ED" stroke-width="1.0"/>
<text x="127.0" y="387.0" font-size="15" font-weight="700" fill="#2E6F95" text-anchor="middle">1.1</text>
<text x="176.0" y="380.0" font-size="15" font-weight="400" fill="#273B4A" text-anchor="start">Prise en main BlueOS, ArduPilot, MAVLink et</text>
<text x="176.0" y="398.3" font-size="15" font-weight="400" fill="#273B4A" text-anchor="start">QGroundControl</text>
<rect x="94.0" y="423.0" width="66.0" height="34.0" rx="8.0" fill="#EEF4F7" stroke="#DCE7ED" stroke-width="1.0"/>
<text x="127.0" y="445.0" font-size="15" font-weight="700" fill="#2E6F95" text-anchor="middle">1.2</text>
<text x="176.0" y="438.0" font-size="15" font-weight="400" fill="#273B4A" text-anchor="start">Architecture réseau avec switch, Jetson et station</text>
<text x="176.0" y="456.3" font-size="15" font-weight="400" fill="#273B4A" text-anchor="start">à terre</text>
<rect x="94.0" y="481.0" width="66.0" height="34.0" rx="8.0" fill="#EEF4F7" stroke="#DCE7ED" stroke-width="1.0"/>
<text x="127.0" y="503.0" font-size="15" font-weight="700" fill="#2E6F95" text-anchor="middle">1.3</text>
<text x="176.0" y="496.0" font-size="15" font-weight="400" fill="#273B4A" text-anchor="start">Accès distants SSH/VNC et endpoints MAVLink vers</text>
<text x="176.0" y="514.3" font-size="15" font-weight="400" fill="#273B4A" text-anchor="start">la Jetson</text>
<rect x="94.0" y="539.0" width="66.0" height="34.0" rx="8.0" fill="#EEF4F7" stroke="#DCE7ED" stroke-width="1.0"/>
<text x="127.0" y="561.0" font-size="15" font-weight="700" fill="#2E6F95" text-anchor="middle">1.4</text>
<text x="176.0" y="554.0" font-size="15" font-weight="400" fill="#273B4A" text-anchor="start">Intégration physique Jetson, caméras, alimentation</text>
<text x="176.0" y="572.3" font-size="15" font-weight="400" fill="#273B4A" text-anchor="start">et boîte étanche</text>
<rect x="94.0" y="597.0" width="66.0" height="34.0" rx="8.0" fill="#EEF4F7" stroke="#DCE7ED" stroke-width="1.0"/>
<text x="127.0" y="619.0" font-size="15" font-weight="700" fill="#2E6F95" text-anchor="middle">1.5</text>
<text x="176.0" y="612.0" font-size="15" font-weight="400" fill="#273B4A" text-anchor="start">Manuel d&#x27;utilisation du BlueBoat modifié</text>
<g filter="url(#shadow)"><rect x="640.0" y="275.0" width="520.0" height="410.0" rx="12.0" fill="#FFFFFF" stroke="#D5DEE7" stroke-width="1.2"/></g>
<rect x="640.0" y="275.0" width="520.0" height="9.0" rx="4.0" fill="#3A8F7B" stroke="#3A8F7B" stroke-width="0.0"/>
<rect x="662.0" y="301.0" width="54.0" height="36.0" rx="8.0" fill="#3A8F7B" stroke="#3A8F7B" stroke-width="1.5"/>
<text x="689.0" y="325.0" font-size="21" font-weight="700" fill="#FFFFFF" text-anchor="middle">2</text>
<text x="732.0" y="314.0" font-size="22" font-weight="700" fill="#173B5C" text-anchor="start">Vision et perception</text>
<line x1="662.0" y1="357.0" x2="1138.0" y2="357.0" stroke="#E5EBF0" stroke-width="1.2"/>
<rect x="664.0" y="365.0" width="66.0" height="34.0" rx="8.0" fill="#EEF4F7" stroke="#DCE7ED" stroke-width="1.0"/>
<text x="697.0" y="387.0" font-size="15" font-weight="700" fill="#3A8F7B" text-anchor="middle">2.1</text>
<text x="746.0" y="380.0" font-size="15" font-weight="400" fill="#273B4A" text-anchor="start">Environnement reproductible Linux, Windows et</text>
<text x="746.0" y="398.3" font-size="15" font-weight="400" fill="#273B4A" text-anchor="start">Jetson</text>
<rect x="664.0" y="417.0" width="66.0" height="34.0" rx="8.0" fill="#EEF4F7" stroke="#DCE7ED" stroke-width="1.0"/>
<text x="697.0" y="439.0" font-size="15" font-weight="700" fill="#3A8F7B" text-anchor="middle">2.2</text>
<text x="746.0" y="432.0" font-size="15" font-weight="400" fill="#273B4A" text-anchor="start">Collecte, tri et préparation d&#x27;images maritimes</text>
<rect x="664.0" y="469.0" width="66.0" height="34.0" rx="8.0" fill="#EEF4F7" stroke="#DCE7ED" stroke-width="1.0"/>
<text x="697.0" y="491.0" font-size="15" font-weight="700" fill="#3A8F7B" text-anchor="middle">2.3</text>
<text x="746.0" y="484.0" font-size="15" font-weight="400" fill="#273B4A" text-anchor="start">Annotation CVAT des bouées et préparation des</text>
<text x="746.0" y="502.3" font-size="15" font-weight="400" fill="#273B4A" text-anchor="start">repères de docking</text>
<rect x="664.0" y="521.0" width="66.0" height="34.0" rx="8.0" fill="#EEF4F7" stroke="#DCE7ED" stroke-width="1.0"/>
<text x="697.0" y="543.0" font-size="15" font-weight="700" fill="#3A8F7B" text-anchor="middle">2.4</text>
<text x="746.0" y="536.0" font-size="15" font-weight="400" fill="#273B4A" text-anchor="start">Entraînements YOLO26 avec augmentations adaptées</text>
<text x="746.0" y="554.3" font-size="15" font-weight="400" fill="#273B4A" text-anchor="start">aux scènes maritimes</text>
<rect x="664.0" y="573.0" width="66.0" height="34.0" rx="8.0" fill="#EEF4F7" stroke="#DCE7ED" stroke-width="1.0"/>
<text x="697.0" y="595.0" font-size="15" font-weight="700" fill="#3A8F7B" text-anchor="middle">2.5</text>
<text x="746.0" y="588.0" font-size="15" font-weight="400" fill="#273B4A" text-anchor="start">Tests d&#x27;inférence, mesures de performance et</text>
<text x="746.0" y="606.3" font-size="15" font-weight="400" fill="#273B4A" text-anchor="start">préparation de l&#x27;export</text>
<rect x="664.0" y="625.0" width="66.0" height="34.0" rx="8.0" fill="#EEF4F7" stroke="#DCE7ED" stroke-width="1.0"/>
<text x="697.0" y="647.0" font-size="15" font-weight="700" fill="#3A8F7B" text-anchor="middle">2.6</text>
<text x="746.0" y="640.0" font-size="15" font-weight="400" fill="#273B4A" text-anchor="start">Documentation de configuration du module Vision</text>
<g filter="url(#shadow)"><rect x="1210.0" y="275.0" width="520.0" height="410.0" rx="12.0" fill="#FFFFFF" stroke="#D5DEE7" stroke-width="1.2"/></g>
<rect x="1210.0" y="275.0" width="520.0" height="9.0" rx="4.0" fill="#7C6FB0" stroke="#7C6FB0" stroke-width="0.0"/>
<rect x="1232.0" y="301.0" width="54.0" height="36.0" rx="8.0" fill="#7C6FB0" stroke="#7C6FB0" stroke-width="1.5"/>
<text x="1259.0" y="325.0" font-size="21" font-weight="700" fill="#FFFFFF" text-anchor="middle">3</text>
<text x="1302.0" y="314.0" font-size="22" font-weight="700" fill="#173B5C" text-anchor="start">Embarqué et contrôle</text>
<line x1="1232.0" y1="357.0" x2="1708.0" y2="357.0" stroke="#E5EBF0" stroke-width="1.2"/>
<rect x="1234.0" y="365.0" width="66.0" height="34.0" rx="8.0" fill="#EEF4F7" stroke="#DCE7ED" stroke-width="1.0"/>
<text x="1267.0" y="387.0" font-size="15" font-weight="700" fill="#7C6FB0" text-anchor="middle">3.1</text>
<text x="1316.0" y="380.0" font-size="15" font-weight="400" fill="#273B4A" text-anchor="start">Benchmark contrôleurs et choix BlueOS/ArduPilot</text>
<rect x="1234.0" y="423.0" width="66.0" height="34.0" rx="8.0" fill="#EEF4F7" stroke="#DCE7ED" stroke-width="1.0"/>
<text x="1267.0" y="445.0" font-size="15" font-weight="700" fill="#7C6FB0" text-anchor="middle">3.2</text>
<text x="1316.0" y="438.0" font-size="15" font-weight="400" fill="#273B4A" text-anchor="start">Tests de communication BlueBoat, moteurs et</text>
<text x="1316.0" y="456.3" font-size="15" font-weight="400" fill="#273B4A" text-anchor="start">firmware</text>
<rect x="1234.0" y="481.0" width="66.0" height="34.0" rx="8.0" fill="#EEF4F7" stroke="#DCE7ED" stroke-width="1.0"/>
<text x="1267.0" y="503.0" font-size="15" font-weight="700" fill="#7C6FB0" text-anchor="middle">3.3</text>
<text x="1316.0" y="496.0" font-size="15" font-weight="400" fill="#273B4A" text-anchor="start">Interface VESC par script Lua, PWM fictif, UART et</text>
<text x="1316.0" y="514.3" font-size="15" font-weight="400" fill="#273B4A" text-anchor="start">MAVLink</text>
<rect x="1234.0" y="539.0" width="66.0" height="34.0" rx="8.0" fill="#EEF4F7" stroke="#DCE7ED" stroke-width="1.0"/>
<text x="1267.0" y="561.0" font-size="15" font-weight="700" fill="#7C6FB0" text-anchor="middle">3.4</text>
<rect x="1638.0" y="538.0" width="68.0" height="25.0" rx="12.0" fill="#FFF5DA" stroke="#FFF5DA" stroke-width="1.5"/>
<text x="1672.0" y="555.0" font-size="11" font-weight="700" fill="#8A6817" text-anchor="middle">Engagé</text>
<text x="1316.0" y="554.0" font-size="15" font-weight="400" fill="#273B4A" text-anchor="start">Préparation de l&#x27;intégration des capteurs</text>
<text x="1316.0" y="572.3" font-size="15" font-weight="400" fill="#273B4A" text-anchor="start">et actionneurs réels</text>
<rect x="1234.0" y="597.0" width="66.0" height="34.0" rx="8.0" fill="#EEF4F7" stroke="#DCE7ED" stroke-width="1.0"/>
<text x="1267.0" y="619.0" font-size="15" font-weight="700" fill="#7C6FB0" text-anchor="middle">3.5</text>
<text x="1316.0" y="612.0" font-size="15" font-weight="400" fill="#273B4A" text-anchor="start">Procédures de tests, étalonnage et validation</text>
<text x="1316.0" y="630.3" font-size="15" font-weight="400" fill="#273B4A" text-anchor="start">technique</text>
<g filter="url(#shadow)"><rect x="70.0" y="735.0" width="520.0" height="410.0" rx="12.0" fill="#FFFFFF" stroke="#D5DEE7" stroke-width="1.2"/></g>
<rect x="70.0" y="735.0" width="520.0" height="9.0" rx="4.0" fill="#C46A4A" stroke="#C46A4A" stroke-width="0.0"/>
<rect x="92.0" y="761.0" width="54.0" height="36.0" rx="8.0" fill="#C46A4A" stroke="#C46A4A" stroke-width="1.5"/>
<text x="119.0" y="785.0" font-size="21" font-weight="700" fill="#FFFFFF" text-anchor="middle">4</text>
<text x="162.0" y="774.0" font-size="22" font-weight="700" fill="#173B5C" text-anchor="start">Tests et intégration système</text>
<line x1="92.0" y1="817.0" x2="568.0" y2="817.0" stroke="#E5EBF0" stroke-width="1.2"/>
<rect x="94.0" y="825.0" width="66.0" height="34.0" rx="8.0" fill="#EEF4F7" stroke="#DCE7ED" stroke-width="1.0"/>
<text x="127.0" y="847.0" font-size="15" font-weight="700" fill="#C46A4A" text-anchor="middle">4.1</text>
<text x="176.0" y="840.0" font-size="15" font-weight="400" fill="#273B4A" text-anchor="start">Fixation des caméras, de la Jetson, du switch et</text>
<text x="176.0" y="858.3" font-size="15" font-weight="400" fill="#273B4A" text-anchor="start">de l&#x27;alimentation</text>
<rect x="94.0" y="883.0" width="66.0" height="34.0" rx="8.0" fill="#EEF4F7" stroke="#DCE7ED" stroke-width="1.0"/>
<text x="127.0" y="905.0" font-size="15" font-weight="700" fill="#C46A4A" text-anchor="middle">4.2</text>
<text x="176.0" y="898.0" font-size="15" font-weight="400" fill="#273B4A" text-anchor="start">Support mobile pour essais GPS et validations à</text>
<text x="176.0" y="916.3" font-size="15" font-weight="400" fill="#273B4A" text-anchor="start">terre</text>
<rect x="94.0" y="941.0" width="66.0" height="34.0" rx="8.0" fill="#EEF4F7" stroke="#DCE7ED" stroke-width="1.0"/>
<text x="127.0" y="963.0" font-size="15" font-weight="700" fill="#C46A4A" text-anchor="middle">4.3</text>
<text x="176.0" y="956.0" font-size="15" font-weight="400" fill="#273B4A" text-anchor="start">Tests du code IA sur plateforme réelle</text>
<rect x="94.0" y="999.0" width="66.0" height="34.0" rx="8.0" fill="#EEF4F7" stroke="#DCE7ED" stroke-width="1.0"/>
<text x="127.0" y="1021.0" font-size="15" font-weight="700" fill="#C46A4A" text-anchor="middle">4.4</text>
<text x="176.0" y="1014.0" font-size="15" font-weight="400" fill="#273B4A" text-anchor="start">Supervision QGroundControl et capacité de reprise</text>
<text x="176.0" y="1032.3" font-size="15" font-weight="400" fill="#273B4A" text-anchor="start">en main</text>
<rect x="94.0" y="1057.0" width="66.0" height="34.0" rx="8.0" fill="#EEF4F7" stroke="#DCE7ED" stroke-width="1.0"/>
<text x="127.0" y="1079.0" font-size="15" font-weight="700" fill="#C46A4A" text-anchor="middle">4.5</text>
<text x="176.0" y="1072.0" font-size="15" font-weight="400" fill="#273B4A" text-anchor="start">Validation des communications MAVLink, station sol</text>
<text x="176.0" y="1090.3" font-size="15" font-weight="400" fill="#273B4A" text-anchor="start">et Jetson</text>
<g filter="url(#shadow)"><rect x="640.0" y="735.0" width="520.0" height="410.0" rx="12.0" fill="#FFFFFF" stroke="#D5DEE7" stroke-width="1.2"/></g>
<rect x="640.0" y="735.0" width="520.0" height="9.0" rx="4.0" fill="#B28A2E" stroke="#B28A2E" stroke-width="0.0"/>
<rect x="662.0" y="761.0" width="54.0" height="36.0" rx="8.0" fill="#B28A2E" stroke="#B28A2E" stroke-width="1.5"/>
<text x="689.0" y="785.0" font-size="21" font-weight="700" fill="#FFFFFF" text-anchor="middle">5</text>
<text x="732.0" y="774.0" font-size="22" font-weight="700" fill="#173B5C" text-anchor="start">Bateau réel et bancs de test</text>
<line x1="662.0" y1="817.0" x2="1138.0" y2="817.0" stroke="#E5EBF0" stroke-width="1.2"/>
<rect x="664.0" y="825.0" width="66.0" height="34.0" rx="8.0" fill="#EEF4F7" stroke="#DCE7ED" stroke-width="1.0"/>
<text x="697.0" y="847.0" font-size="15" font-weight="700" fill="#B28A2E" text-anchor="middle">5.1</text>
<text x="746.0" y="840.0" font-size="15" font-weight="400" fill="#273B4A" text-anchor="start">Choix Hobie Cat 14 et conception du châssis</text>
<text x="746.0" y="858.3" font-size="15" font-weight="400" fill="#273B4A" text-anchor="start">aluminium</text>
<rect x="664.0" y="883.0" width="66.0" height="34.0" rx="8.0" fill="#EEF4F7" stroke="#DCE7ED" stroke-width="1.0"/>
<text x="697.0" y="905.0" font-size="15" font-weight="700" fill="#B28A2E" text-anchor="middle">5.2</text>
<text x="746.0" y="898.0" font-size="15" font-weight="400" fill="#273B4A" text-anchor="start">Architecture électrique cohérente avec les</text>
<text x="746.0" y="916.3" font-size="15" font-weight="400" fill="#273B4A" text-anchor="start">sous-systèmes</text>
<rect x="664.0" y="941.0" width="66.0" height="34.0" rx="8.0" fill="#EEF4F7" stroke="#DCE7ED" stroke-width="1.0"/>
<text x="697.0" y="963.0" font-size="15" font-weight="700" fill="#B28A2E" text-anchor="middle">5.3</text>
<text x="746.0" y="956.0" font-size="15" font-weight="400" fill="#273B4A" text-anchor="start">Architecture de direction brushless et évolution</text>
<text x="746.0" y="974.3" font-size="15" font-weight="400" fill="#273B4A" text-anchor="start">du safran</text>
<rect x="664.0" y="999.0" width="66.0" height="34.0" rx="8.0" fill="#EEF4F7" stroke="#DCE7ED" stroke-width="1.0"/>
<text x="697.0" y="1021.0" font-size="15" font-weight="700" fill="#B28A2E" text-anchor="middle">5.4</text>
<text x="746.0" y="1014.0" font-size="15" font-weight="400" fill="#273B4A" text-anchor="start">Bancs de test moteur principal, direction, GPS et</text>
<text x="746.0" y="1032.3" font-size="15" font-weight="400" fill="#273B4A" text-anchor="start">radiocommande</text>
<rect x="664.0" y="1057.0" width="66.0" height="34.0" rx="8.0" fill="#EEF4F7" stroke="#DCE7ED" stroke-width="1.0"/>
<text x="697.0" y="1079.0" font-size="15" font-weight="700" fill="#B28A2E" text-anchor="middle">5.5</text>
<text x="746.0" y="1072.0" font-size="15" font-weight="400" fill="#273B4A" text-anchor="start">Suivi conformité MEBC et choix système hybride</text>
<text x="746.0" y="1090.3" font-size="15" font-weight="400" fill="#273B4A" text-anchor="start">pilote/radiocommande</text>
<g filter="url(#shadow)"><rect x="1210.0" y="735.0" width="520.0" height="410.0" rx="12.0" fill="#FFFFFF" stroke="#D5DEE7" stroke-width="1.2"/></g>
<rect x="1210.0" y="735.0" width="520.0" height="9.0" rx="4.0" fill="#4F7F52" stroke="#4F7F52" stroke-width="0.0"/>
<rect x="1232.0" y="761.0" width="54.0" height="36.0" rx="8.0" fill="#4F7F52" stroke="#4F7F52" stroke-width="1.5"/>
<text x="1259.0" y="785.0" font-size="21" font-weight="700" fill="#FFFFFF" text-anchor="middle">6</text>
<text x="1302.0" y="774.0" font-size="22" font-weight="700" fill="#173B5C" text-anchor="start">Gestion, livrables et passation</text>
<line x1="1232.0" y1="817.0" x2="1708.0" y2="817.0" stroke="#E5EBF0" stroke-width="1.2"/>
<rect x="1234.0" y="825.0" width="66.0" height="34.0" rx="8.0" fill="#EEF4F7" stroke="#DCE7ED" stroke-width="1.0"/>
<text x="1267.0" y="847.0" font-size="15" font-weight="700" fill="#4F7F52" text-anchor="middle">6.1</text>
<text x="1316.0" y="840.0" font-size="15" font-weight="400" fill="#273B4A" text-anchor="start">Coordination des pôles et séances de travail au</text>
<text x="1316.0" y="858.3" font-size="15" font-weight="400" fill="#273B4A" text-anchor="start">FabLab</text>
<rect x="1234.0" y="883.0" width="66.0" height="34.0" rx="8.0" fill="#EEF4F7" stroke="#DCE7ED" stroke-width="1.0"/>
<text x="1267.0" y="905.0" font-size="15" font-weight="700" fill="#4F7F52" text-anchor="middle">6.2</text>
<text x="1316.0" y="898.0" font-size="15" font-weight="400" fill="#273B4A" text-anchor="start">Suivi budget, sponsors, achats, commandes et</text>
<text x="1316.0" y="916.3" font-size="15" font-weight="400" fill="#273B4A" text-anchor="start">réception des composants</text>
<rect x="1234.0" y="941.0" width="66.0" height="34.0" rx="8.0" fill="#EEF4F7" stroke="#DCE7ED" stroke-width="1.0"/>
<text x="1267.0" y="963.0" font-size="15" font-weight="700" fill="#4F7F52" text-anchor="middle">6.3</text>
<text x="1316.0" y="956.0" font-size="15" font-weight="400" fill="#273B4A" text-anchor="start">Matrice RACI finale et suivi des risques</text>
<text x="1316.0" y="974.3" font-size="15" font-weight="400" fill="#273B4A" text-anchor="start">techniques</text>
<rect x="1234.0" y="999.0" width="66.0" height="34.0" rx="8.0" fill="#EEF4F7" stroke="#DCE7ED" stroke-width="1.0"/>
<text x="1267.0" y="1021.0" font-size="15" font-weight="700" fill="#4F7F52" text-anchor="middle">6.4</text>
<text x="1316.0" y="1014.0" font-size="15" font-weight="400" fill="#273B4A" text-anchor="start">Rapport PIE, dossier de réalisation et</text>
<text x="1316.0" y="1032.3" font-size="15" font-weight="400" fill="#273B4A" text-anchor="start">documentation de continuité</text>
<rect x="1234.0" y="1057.0" width="66.0" height="34.0" rx="8.0" fill="#EEF4F7" stroke="#DCE7ED" stroke-width="1.0"/>
<text x="1267.0" y="1079.0" font-size="15" font-weight="700" fill="#4F7F52" text-anchor="middle">6.5</text>
<text x="1316.0" y="1072.0" font-size="15" font-weight="400" fill="#273B4A" text-anchor="start">Manuels BlueBoat et Vision pour faciliter la</text>
<text x="1316.0" y="1090.3" font-size="15" font-weight="400" fill="#273B4A" text-anchor="start">continuité du projet</text>
<rect x="70.0" y="1157.0" width="1660.0" height="54.0" rx="12.0" fill="#FFFFFF" stroke="#DCE5EC" stroke-width="1.0"/>
<text x="438.0" y="1190.0" font-size="16" font-weight="800" fill="#173B5C" text-anchor="middle">Légende</text>
<text x="535.0" y="1190.0" font-size="14" font-weight="400" fill="#526778" text-anchor="start">Tous les éléments sont réalisés, sauf mention explicite</text>
<line x1="980" y1="1171" x2="980" y2="1197" stroke="#DCE5EC" stroke-width="1"/>
<rect x="1014.0" y="1170.0" width="70.0" height="24.0" rx="12.0" fill="#FFF5DA" stroke="#FFF5DA" stroke-width="1.5"/>
<text x="1049.0" y="1187.0" font-size="11" font-weight="700" fill="#8A6817" text-anchor="middle">Engagé</text>
<text x="1122.0" y="1190.0" font-size="14" font-weight="400" fill="#526778" text-anchor="start">Travail commencé et décrit comme en cours de transition</text>
</svg>
